<svg xmlns="http://www.w3.org/2000/svg" xmlns:xlink="http://www.w3.org/1999/xlink" version="1.1" viewBox="0 0 12 12" class="svg-icon svg-fill" style="width: 5px; height: 5px;">
  <g fill="none" fill-rule="evenodd">
    <path pid="0" d="M12 4.65c0 .111-.062.232-.188.363L9.195 7.69l.62 3.78c.005.036.007.086.007.152a.46.46 0 0 1-.076.268.25.25 0 0 1-.22.11.564.564 0 0 1-.288-.09L6 10.124l-3.238 1.784a.592.592 0 0 1-.288.091c-.101 0-.177-.037-.228-.11a.46.46 0 0 1-.075-.268c0-.03.004-.08.014-.151l.62-3.781L.18 5.013C.06 4.877 0 4.756 0 4.65c0-.186.135-.302.404-.348l3.62-.552L5.647.31C5.738.103 5.856 0 6 0s.262.103.353.31l1.623 3.44 3.62.552c.27.046.404.162.404.348z" fill="#fe0"></path>
  </g>
</svg>
